<mxfile host="app.diagrams.net" modified="2023-06-05T15:20:21.542Z" agent="Mozilla/5.0 (Windows NT 10.0; Win64; x64) AppleWebKit/537.36 (KHTML, like Gecko) Chrome/114.0.0.0 Safari/537.36" etag="z_irdmh-nfUJUrYk4nI9" version="21.3.7" type="device">
  <diagram name="Page-1" id="7F8XoeqNzgExtDkTt63r">
    <mxGraphModel dx="2736" dy="951" grid="1" gridSize="10" guides="1" tooltips="1" connect="1" arrows="1" fold="1" page="1" pageScale="1" pageWidth="827" pageHeight="1169" math="0" shadow="0">
      <root>
        <mxCell id="0" />
        <mxCell id="1" parent="0" />
        <mxCell id="zk5iBjnvamg6UPnarVHf-1" value="Uporabnik" style="swimlane;whiteSpace=wrap;html=1;" parent="1" vertex="1">
          <mxGeometry x="-80" y="30" width="240" height="710" as="geometry" />
        </mxCell>
        <mxCell id="zk5iBjnvamg6UPnarVHf-2" value="" style="ellipse;html=1;shape=startState;fillColor=#000000;strokeColor=#ff0000;" parent="zk5iBjnvamg6UPnarVHf-1" vertex="1">
          <mxGeometry x="105" y="30" width="30" height="30" as="geometry" />
        </mxCell>
        <mxCell id="mRtVevssRMSoA0PaDLHJ-1" style="edgeStyle=orthogonalEdgeStyle;rounded=0;orthogonalLoop=1;jettySize=auto;html=1;entryX=0.5;entryY=0;entryDx=0;entryDy=0;exitX=0.499;exitY=0.846;exitDx=0;exitDy=0;exitPerimeter=0;" edge="1" parent="zk5iBjnvamg6UPnarVHf-1" source="zk5iBjnvamg6UPnarVHf-2" target="zk5iBjnvamg6UPnarVHf-4">
          <mxGeometry relative="1" as="geometry">
            <mxPoint x="140" y="70" as="targetPoint" />
            <mxPoint x="120" y="60" as="sourcePoint" />
          </mxGeometry>
        </mxCell>
        <mxCell id="zk5iBjnvamg6UPnarVHf-4" value="Klikne na gumb za urejanje podatkov rastline" style="rounded=1;whiteSpace=wrap;html=1;" parent="zk5iBjnvamg6UPnarVHf-1" vertex="1">
          <mxGeometry x="60" y="80" width="120" height="60" as="geometry" />
        </mxCell>
        <mxCell id="1_q3FnOKaiwPlgA-29bS-3" value="" style="edgeStyle=orthogonalEdgeStyle;rounded=0;orthogonalLoop=1;jettySize=auto;html=1;" parent="zk5iBjnvamg6UPnarVHf-1" source="zk5iBjnvamg6UPnarVHf-48" target="1_q3FnOKaiwPlgA-29bS-2" edge="1">
          <mxGeometry relative="1" as="geometry" />
        </mxCell>
        <mxCell id="zk5iBjnvamg6UPnarVHf-48" value="Spremeni željene podatke" style="rounded=1;whiteSpace=wrap;html=1;" parent="zk5iBjnvamg6UPnarVHf-1" vertex="1">
          <mxGeometry x="60" y="180" width="120" height="60" as="geometry" />
        </mxCell>
        <mxCell id="1_q3FnOKaiwPlgA-29bS-2" value="Klikne na gumb za shranjevanje" style="whiteSpace=wrap;html=1;rounded=1;" parent="zk5iBjnvamg6UPnarVHf-1" vertex="1">
          <mxGeometry x="60" y="260" width="120" height="60" as="geometry" />
        </mxCell>
        <mxCell id="zk5iBjnvamg6UPnarVHf-41" value="Aplikacija" style="swimlane;whiteSpace=wrap;html=1;" parent="1" vertex="1">
          <mxGeometry x="160" y="30" width="280" height="710" as="geometry" />
        </mxCell>
        <mxCell id="zk5iBjnvamg6UPnarVHf-42" value="Preusmeri na zaslon za urejanje podatkov rastline" style="rounded=1;whiteSpace=wrap;html=1;" parent="zk5iBjnvamg6UPnarVHf-41" vertex="1">
          <mxGeometry x="80" y="80" width="120" height="60" as="geometry" />
        </mxCell>
        <mxCell id="zk5iBjnvamg6UPnarVHf-46" value="" style="edgeStyle=orthogonalEdgeStyle;rounded=0;orthogonalLoop=1;jettySize=auto;html=1;" parent="zk5iBjnvamg6UPnarVHf-41" source="zk5iBjnvamg6UPnarVHf-47" target="zk5iBjnvamg6UPnarVHf-49" edge="1">
          <mxGeometry relative="1" as="geometry" />
        </mxCell>
        <mxCell id="zk5iBjnvamg6UPnarVHf-47" value="Prejme odgovor" style="whiteSpace=wrap;html=1;rounded=1;" parent="zk5iBjnvamg6UPnarVHf-41" vertex="1">
          <mxGeometry x="80" y="500" width="120" height="60" as="geometry" />
        </mxCell>
        <mxCell id="zk5iBjnvamg6UPnarVHf-49" value="Shrani spremenjene podatke lokalno" style="whiteSpace=wrap;html=1;rounded=1;" parent="zk5iBjnvamg6UPnarVHf-41" vertex="1">
          <mxGeometry x="80" y="580" width="120" height="60" as="geometry" />
        </mxCell>
        <mxCell id="1_q3FnOKaiwPlgA-29bS-6" value="" style="edgeStyle=orthogonalEdgeStyle;rounded=0;orthogonalLoop=1;jettySize=auto;html=1;" parent="zk5iBjnvamg6UPnarVHf-41" source="1_q3FnOKaiwPlgA-29bS-1" target="1_q3FnOKaiwPlgA-29bS-5" edge="1">
          <mxGeometry relative="1" as="geometry" />
        </mxCell>
        <mxCell id="1_q3FnOKaiwPlgA-29bS-1" value="Ustvari objekt za shranjevanje podatkov" style="rounded=1;whiteSpace=wrap;html=1;" parent="zk5iBjnvamg6UPnarVHf-41" vertex="1">
          <mxGeometry x="80" y="260" width="120" height="60" as="geometry" />
        </mxCell>
        <mxCell id="1_q3FnOKaiwPlgA-29bS-5" value="Pošlje zahtevo" style="rounded=1;whiteSpace=wrap;html=1;" parent="zk5iBjnvamg6UPnarVHf-41" vertex="1">
          <mxGeometry x="80" y="340" width="120" height="60" as="geometry" />
        </mxCell>
        <mxCell id="zk5iBjnvamg6UPnarVHf-24" value="" style="ellipse;html=1;shape=endState;fillColor=#000000;strokeColor=#ff0000;" parent="zk5iBjnvamg6UPnarVHf-41" vertex="1">
          <mxGeometry x="125" y="670" width="30" height="30" as="geometry" />
        </mxCell>
        <mxCell id="zk5iBjnvamg6UPnarVHf-9" style="edgeStyle=orthogonalEdgeStyle;rounded=0;orthogonalLoop=1;jettySize=auto;html=1;entryX=0.5;entryY=0;entryDx=0;entryDy=0;exitX=0.5;exitY=1;exitDx=0;exitDy=0;" parent="zk5iBjnvamg6UPnarVHf-41" source="zk5iBjnvamg6UPnarVHf-49" target="zk5iBjnvamg6UPnarVHf-24" edge="1">
          <mxGeometry relative="1" as="geometry">
            <mxPoint x="-80" y="659.9300000000001" as="targetPoint" />
            <Array as="points" />
            <mxPoint x="160" y="650" as="sourcePoint" />
          </mxGeometry>
        </mxCell>
        <mxCell id="zk5iBjnvamg6UPnarVHf-50" value="Zaledni sistem" style="swimlane;whiteSpace=wrap;html=1;startSize=23;" parent="1" vertex="1">
          <mxGeometry x="440" y="30" width="200" height="710" as="geometry" />
        </mxCell>
        <mxCell id="zk5iBjnvamg6UPnarVHf-51" value="" style="edgeStyle=orthogonalEdgeStyle;rounded=0;orthogonalLoop=1;jettySize=auto;html=1;" parent="zk5iBjnvamg6UPnarVHf-50" source="zk5iBjnvamg6UPnarVHf-52" target="zk5iBjnvamg6UPnarVHf-53" edge="1">
          <mxGeometry relative="1" as="geometry" />
        </mxCell>
        <mxCell id="zk5iBjnvamg6UPnarVHf-52" value="Prejme zahtevek" style="whiteSpace=wrap;html=1;rounded=1;" parent="zk5iBjnvamg6UPnarVHf-50" vertex="1">
          <mxGeometry x="40" y="340" width="120" height="60" as="geometry" />
        </mxCell>
        <mxCell id="zk5iBjnvamg6UPnarVHf-53" value="Spremeni podatke o rastlini" style="whiteSpace=wrap;html=1;rounded=1;" parent="zk5iBjnvamg6UPnarVHf-50" vertex="1">
          <mxGeometry x="40" y="420" width="120" height="60" as="geometry" />
        </mxCell>
        <mxCell id="zk5iBjnvamg6UPnarVHf-54" value="" style="edgeStyle=orthogonalEdgeStyle;rounded=0;orthogonalLoop=1;jettySize=auto;html=1;exitX=0.5;exitY=1;exitDx=0;exitDy=0;entryX=0.5;entryY=0;entryDx=0;entryDy=0;" parent="zk5iBjnvamg6UPnarVHf-50" source="zk5iBjnvamg6UPnarVHf-53" target="zk5iBjnvamg6UPnarVHf-55" edge="1">
          <mxGeometry relative="1" as="geometry">
            <mxPoint x="100" y="1030" as="targetPoint" />
          </mxGeometry>
        </mxCell>
        <mxCell id="zk5iBjnvamg6UPnarVHf-55" value="Vrne odgovor o statusu sprememb" style="whiteSpace=wrap;html=1;rounded=1;" parent="zk5iBjnvamg6UPnarVHf-50" vertex="1">
          <mxGeometry x="40" y="500" width="120" height="60" as="geometry" />
        </mxCell>
        <mxCell id="zk5iBjnvamg6UPnarVHf-56" value="" style="endArrow=classic;html=1;rounded=0;exitX=1;exitY=0.5;exitDx=0;exitDy=0;entryX=0;entryY=0.5;entryDx=0;entryDy=0;" parent="1" source="zk5iBjnvamg6UPnarVHf-4" target="zk5iBjnvamg6UPnarVHf-42" edge="1">
          <mxGeometry width="50" height="50" relative="1" as="geometry">
            <mxPoint x="60" y="320" as="sourcePoint" />
            <mxPoint x="110" y="270" as="targetPoint" />
          </mxGeometry>
        </mxCell>
        <mxCell id="zk5iBjnvamg6UPnarVHf-62" style="edgeStyle=orthogonalEdgeStyle;rounded=0;orthogonalLoop=1;jettySize=auto;html=1;entryX=1;entryY=0.5;entryDx=0;entryDy=0;" parent="1" source="zk5iBjnvamg6UPnarVHf-55" target="zk5iBjnvamg6UPnarVHf-47" edge="1">
          <mxGeometry relative="1" as="geometry" />
        </mxCell>
        <mxCell id="zk5iBjnvamg6UPnarVHf-44" value="" style="edgeStyle=orthogonalEdgeStyle;rounded=0;orthogonalLoop=1;jettySize=auto;html=1;exitX=0.5;exitY=1;exitDx=0;exitDy=0;" parent="1" source="zk5iBjnvamg6UPnarVHf-42" target="zk5iBjnvamg6UPnarVHf-48" edge="1">
          <mxGeometry relative="1" as="geometry">
            <mxPoint x="340" y="570" as="sourcePoint" />
          </mxGeometry>
        </mxCell>
        <mxCell id="1_q3FnOKaiwPlgA-29bS-4" style="edgeStyle=orthogonalEdgeStyle;rounded=0;orthogonalLoop=1;jettySize=auto;html=1;entryX=0;entryY=0.5;entryDx=0;entryDy=0;" parent="1" source="1_q3FnOKaiwPlgA-29bS-2" target="1_q3FnOKaiwPlgA-29bS-1" edge="1">
          <mxGeometry relative="1" as="geometry" />
        </mxCell>
        <mxCell id="1_q3FnOKaiwPlgA-29bS-7" style="edgeStyle=orthogonalEdgeStyle;rounded=0;orthogonalLoop=1;jettySize=auto;html=1;entryX=0;entryY=0.5;entryDx=0;entryDy=0;" parent="1" source="1_q3FnOKaiwPlgA-29bS-5" target="zk5iBjnvamg6UPnarVHf-52" edge="1">
          <mxGeometry relative="1" as="geometry" />
        </mxCell>
      </root>
    </mxGraphModel>
  </diagram>
</mxfile>
